/* XPM */
static char *dummy[]={
"14 14 33 1",
"j c #3f403e",
"p c #40403f",
"r c #41413f",
"u c #434441",
"D c #454744",
"q c #464644",
"B c #464744",
"h c #464844",
"c c #474845",
"z c #484a47",
"s c #484a48",
"m c #494a47",
"d c #494b47",
"o c #4a4c48",
"A c #4a4c49",
"k c #4b4c48",
"g c #4b4c49",
"y c #4c4e4b",
"l c #4d4f4b",
"x c #555753",
"C c #555852",
"E c #565853",
"w c #565854",
"v c #575955",
"t c #575a54",
"n c #575a55",
"f c #585a56",
"e c #585b56",
"i c #595b56",
"b c #595b57",
"a c #5a5c57",
"# c #5a5d58",
". c #5b5d58",
"..............",
"##############",
"aaaaaaaaaaaaaa",
"bbbcdebbfghbbb",
"iiidjkiiljmiii",
"fffnopqqrstfff",
"nnnnnqjjunnnnn",
"vvvvvqjjuvvvvv",
"wwwxyruurgxwww",
"wwwgjzwwgjAwww",
"wwwBmCwwxADwww",
"EEEEEEEEEEEEEE",
"xxxxxxxxxxxxxx",
"xxxxxxxxxxxxxx"};
