/* XPM */
static char *dummy[]={
"14 14 37 1",
"v c #232422",
"j c #232423",
"p c #242523",
"A c #242624",
"r c #252624",
"B c #292b28",
"y c #2a2b29",
"w c #2a2c29",
"H c #2f302e",
"q c #2f312e",
"F c #313130",
"h c #313231",
"c c #323331",
"D c #353634",
"s c #363735",
"m c #363835",
"d c #383836",
"E c #383937",
"o c #393a38",
"C c #393b38",
"k c #3a3b38",
"g c #3b3d3a",
"z c #3d3f3b",
"l c #3e413d",
"G c #525450",
"t c #545652",
"n c #555753",
"I c #565853",
"e c #565854",
"x c #575955",
"u c #575a55",
"f c #585a56",
"i c #595b56",
"b c #595b57",
"a c #5a5c57",
"# c #5a5d58",
". c #5b5d58",
"..............",
"##############",
"aaaaaaaaaaaaaa",
"bbbcdebbfghbbb",
"iiidjkiiljmiii",
"fffnopqqrstfff",
"uuuuuqvvwuuuuu",
"xxxxxqvvyxxxxx",
"eeenzABBACteee",
"eeeCvDeeCjEeee",
"eeeFDGeetEHeee",
"IIIIIIIIIIIIII",
"nnnnnnnnnnnnnn",
"nnnnnnnnnnnnnn"};
