/* XPM */
static char *dummy[]={
"14 14 42 1",
"N c #555753",
"M c #565853",
"A c #565854",
"y c #575955",
"u c #575a55",
"o c #585a56",
"i c #595b56",
"b c #595b57",
"a c #5a5c57",
"# c #5a5d58",
". c #5b5d58",
"B c #5b5d59",
"f c #5e605c",
"p c #5f615d",
"e c #60625e",
"C c #949593",
"m c #969794",
"F c #9c9d9b",
"G c #9d9e9c",
"g c #9fa09d",
"J c #a0a19f",
"l c #a1a2a0",
"j c #a6a7a4",
"d c #a6a7a5",
"H c #a7a8a6",
"t c #a8a9a7",
"n c #a9aaa8",
"c c #b2b3b1",
"K c #b3b4b2",
"h c #b4b5b3",
"L c #b5b6b5",
"z c #b6b7b6",
"v c #b6b8b6",
"r c #b7b8b6",
"E c #c2c2c1",
"x c #c2c3c1",
"D c #cececd",
"s c #cecfce",
"q c #d0d1d0",
"I c #d3d3d2",
"w c #d3d4d3",
"k c #d4d4d3",
"..............",
"##############",
"aaaaaaaaaaaaaa",
"bbbcdebbfghbbb",
"iiijkliimkniii",
"oooplqrrsteooo",
"uuuuuvwwxuuuuu",
"yyyyyzwwxyyyyy",
"AAABCDEEDFBAAA",
"AAAGwHAAFIJAAA",
"AAAKtfAABJLAAA",
"MMMMMMMMMMMMMM",
"NNNNNNNNNNNNNN",
"NNNNNNNNNNNNNN"};
