/* XPM */
static char *dummy[]={
"14 14 13 1",
"i c #232422",
"h c #4f514d",
"k c #555753",
"j c #565853",
"g c #565854",
"f c #575955",
"e c #575a55",
"d c #585a56",
"c c #595b56",
"b c #595b57",
"a c #5a5c57",
"# c #5a5d58",
". c #5b5d58",
"..............",
"##############",
"aaaaaaaaaaaaaa",
"bbbbbbbbbbbbbb",
"cccccccccccccc",
"dddddddddddddd",
"eeeeeeeeeeeeee",
"ffffffffffffff",
"ggghhhhhhhhggg",
"gggiiiiiiiiggg",
"gggiiiiiiiiggg",
"jjjjjjjjjjjjjj",
"kkkkkkkkkkkkkk",
"kkkkkkkkkkkkkk"};
