/* XPM */
static char *dummy[]={
"14 14 22 1",
"c c #232423",
"e c #242523",
"q c #272927",
"r c #282927",
"g c #2e302d",
"i c #313130",
"k c #313330",
"p c #333532",
"n c #333533",
"l c #333633",
"h c #4c4e4b",
"t c #555753",
"s c #565853",
"o c #565854",
"m c #575955",
"j c #575a55",
"f c #585a56",
"d c #595b56",
"b c #595b57",
"a c #5a5c57",
"# c #5a5d58",
". c #5b5d58",
"..............",
"##############",
"aaaaaaaaaaaaaa",
"bbbccccccccbbb",
"dddccecceccddd",
"fffghhhhhhifff",
"jjjkjjjjjjljjj",
"mmmkmmmmmmnmmm",
"oookoooooopooo",
"oookoooooopooo",
"oooqpppppprooo",
"ssssssssssssss",
"tttttttttttttt",
"tttttttttttttt"};
