/* XPM */
static char *dummy[]={
"14 14 23 1",
"u c #555753",
"t c #565853",
"o c #565854",
"m c #575955",
"j c #575a55",
"f c #585a56",
"d c #595b56",
"b c #595b57",
"a c #5a5c57",
"# c #5a5d58",
". c #5b5d58",
"h c #737572",
"q c #aaabaa",
"l c #abacaa",
"p c #b0b1af",
"n c #b1b1b0",
"k c #b1b2b0",
"i c #b4b5b3",
"g c #b9bab8",
"s c #c6c7c6",
"r c #c8c8c7",
"e c #d3d4d3",
"c c #d4d4d3",
"..............",
"##############",
"aaaaaaaaaaaaaa",
"bbbccccccccbbb",
"dddccecceccddd",
"fffghhhhhhifff",
"jjjkjjjjjjljjj",
"mmmnmmmmmmlmmm",
"ooopooooooqooo",
"ooopooooooqooo",
"ooorqqqqqqsooo",
"tttttttttttttt",
"uuuuuuuuuuuuuu",
"uuuuuuuuuuuuuu"};
