/* XPM */
static char *dummy[]={
"14 14 19 1",
"c c #3f403e",
"n c #414240",
"o c #424341",
"f c #454644",
"h c #464745",
"j c #474845",
"k c #484946",
"g c #535552",
"q c #555753",
"p c #565853",
"m c #565854",
"l c #575955",
"i c #575a55",
"e c #585a56",
"d c #595b56",
"b c #595b57",
"a c #5a5c57",
"# c #5a5d58",
". c #5b5d58",
"..............",
"##############",
"aaaaaaaaaaaaaa",
"bbbccccccccbbb",
"dddccccccccddd",
"eeefggggggheee",
"iiijiiiiiikiii",
"llljllllllklll",
"mmmjmmmmmmkmmm",
"mmmjmmmmmmkmmm",
"mmmnkkkkkkommm",
"pppppppppppppp",
"qqqqqqqqqqqqqq",
"qqqqqqqqqqqqqq"};
