/* XPM */
static char *dummy[]={
"14 14 38 1",
"J c #555753",
"I c #565853",
"D c #565854",
"w c #575955",
"o c #575a55",
"h c #585a56",
"c c #595b56",
"b c #595b57",
"a c #5a5c57",
"# c #5a5d58",
". c #5b5d58",
"E c #5e605c",
"G c #60615e",
"x c #646663",
"C c #676965",
"l c #696b68",
"d c #6a6b67",
"g c #6c6e69",
"t c #6d706c",
"f c #72736f",
"k c #727370",
"s c #727470",
"e c #777874",
"H c #a0a19e",
"y c #aeafad",
"B c #b4b5b4",
"p c #b6b7b5",
"F c #b7b8b7",
"v c #b8b9b7",
"A c #bdbebd",
"i c #bebebd",
"n c #c0c0bf",
"z c #c2c3c1",
"m c #c2c3c2",
"j c #c5c5c4",
"u c #c7c8c7",
"r c #cfcfce",
"q c #d3d4d3",
"..............",
"##############",
"aaaaaaaaaaaaaa",
"bbbbbbbbbbbbbb",
"cccdeccccfgccc",
"hhhijkhhlmnhhh",
"ooopqrstuqvooo",
"wwwxyqzAqBCwww",
"DDDDEyqqFGDDDD",
"DDDDDbHHGDDDDD",
"DDDDDDDDDDDDDD",
"IIIIIIIIIIIIII",
"JJJJJJJJJJJJJJ",
"JJJJJJJJJJJJJJ"};
