/* XPM */
static char *dummy[]={
"14 14 34 1",
"p c #3f403e",
"q c #40413f",
"t c #424340",
"j c #424441",
"l c #434441",
"x c #434442",
"m c #434542",
"i c #444543",
"C c #454643",
"o c #454744",
"y c #464745",
"w c #474946",
"E c #4a4c48",
"r c #535550",
"e c #545551",
"k c #545552",
"s c #545651",
"B c #545652",
"v c #545654",
"f c #555551",
"z c #555553",
"F c #555753",
"D c #555853",
"d c #555953",
"g c #565853",
"A c #565854",
"u c #575955",
"n c #575a55",
"h c #585a56",
"c c #595b56",
"b c #595b57",
"a c #5a5c57",
"# c #5a5d58",
". c #5b5d58",
"..............",
"##############",
"aaaaaaaaaaaaaa",
"bbbbbbbbbbbbbb",
"cccdeccccfgccc",
"hhhijkhhglmhhh",
"nnnopqrstponnn",
"uuuvwpxipyzuuu",
"AAAABwppCBAAAA",
"AAAAADEEBAAAAA",
"AAAAAAAAAAAAAA",
"gggggggggggggg",
"FFFFFFFFFFFFFF",
"FFFFFFFFFFFFFF"};
