/* XPM */
static char *dummy[]={
"5 16 4 1",
"b c #3f403e",
"a c #50524e",
"# c #525450",
". c #545652",
"..#ab",
"..#ab",
"..#ab",
"..#ab",
"..#ab",
"..#ab",
"..#ab",
"..#ab",
"..#ab",
"..#ab",
"..#ab",
"..#ab",
"..#ab",
"..#ab",
"..#ab",
"..#ab"};
