/* XPM */
static char *dummy[]={
"14 14 13 1",
"d c #3f403e",
"b c #535652",
"k c #555753",
"j c #565853",
"i c #565854",
"h c #575955",
"g c #575a55",
"f c #585a56",
"e c #595b56",
"c c #595b57",
"a c #5a5c57",
"# c #5a5d58",
". c #5b5d58",
"..............",
"##############",
"aaabbbbbbbbaaa",
"cccddddddddccc",
"eeeddddddddeee",
"ffffffffffffff",
"gggggggggggggg",
"hhhhhhhhhhhhhh",
"iiiiiiiiiiiiii",
"iiiiiiiiiiiiii",
"iiiiiiiiiiiiii",
"jjjjjjjjjjjjjj",
"kkkkkkkkkkkkkk",
"kkkkkkkkkkkkkk"};
