/* XPM */
static char *dummy[]={
"14 14 26 1",
"f c #333332",
"n c #343433",
"q c #373735",
"i c #383937",
"j c #3a3a39",
"g c #3c3c3a",
"m c #3c3d3b",
"k c #3d3e3c",
"e c #3f403d",
"c c #434441",
"o c #50524e",
"p c #51534f",
"v c #535551",
"t c #535552",
"u c #545451",
"w c #555753",
"x c #565853",
"s c #565854",
"r c #575955",
"l c #575a55",
"h c #585a56",
"d c #595b56",
"b c #595b57",
"a c #5a5c57",
"# c #5a5d58",
". c #5b5d58",
"..............",
"##############",
"aaaaaaaaaaaaaa",
"bbbbbbccbbbbbb",
"dddddeffgddddd",
"hhhhefijfkhhhh",
"lllmfnopqfmlll",
"rrrmfnopqfmrrr",
"ssstefijfkusss",
"ssssveffgvssss",
"ssssswccvsssss",
"xxxxxxxxxxxxxx",
"wwwwwwwwwwwwww",
"wwwwwwwwwwwwww"};
