/* XPM */
static char *dummy[]={
"14 14 28 1",
"z c #555753",
"y c #565853",
"x c #565854",
"w c #575955",
"p c #575a55",
"j c #585a56",
"e c #595b56",
"b c #595b57",
"a c #5a5c57",
"# c #5a5d58",
". c #5b5d58",
"f c #5e605c",
"d c #60615e",
"k c #646663",
"o c #676965",
"t c #6d706c",
"s c #727470",
"c c #a0a19e",
"g c #aeafad",
"n c #b4b5b4",
"q c #b6b7b5",
"i c #b7b8b7",
"v c #b8b9b7",
"m c #bdbebd",
"l c #c2c3c1",
"u c #c7c8c7",
"r c #cfcfce",
"h c #d3d4d3",
"..............",
"##############",
"aaaaaaaaaaaaaa",
"bbbbbbccdbbbbb",
"eeeefghhideeee",
"jjjkghlmhnojjj",
"pppqhrstuhvppp",
"wwwqhrstuhvwww",
"xxxkghlmhnoxxx",
"xxxxfghhidxxxx",
"xxxxxbccdxxxxx",
"yyyyyyyyyyyyyy",
"zzzzzzzzzzzzzz",
"zzzzzzzzzzzzzz"};
