/* XPM */
static char *dummy[]={
"23 23 14 1",
". c #3f403e",
"l c #545652",
"k c #555753",
"j c #565853",
"i c #565854",
"h c #575955",
"g c #575a55",
"f c #585a56",
"e c #595b56",
"d c #595b57",
"c c #5a5c57",
"b c #5a5d58",
"a c #5b5d58",
"# c #5b5e59",
".......................",
"#######################",
"#######################",
"#######################",
"aaaaaaaaaaaaaaaaaaaaaaa",
"bbbbbbbbbbbbbbbbbbbbbbb",
"ccccccccccccccccccccccc",
"ddddddddddddddddddddddd",
"eeeeeeeeeeeeeeeeeeeeeee",
"fffffffffffffffffffffff",
"ggggggggggggggggggggggg",
"hhhhhhhhhhhhhhhhhhhhhhh",
"iiiiiiiiiiiiiiiiiiiiiii",
"iiiiiiiiiiiiiiiiiiiiiii",
"iiiiiiiiiiiiiiiiiiiiiii",
"jjjjjjjjjjjjjjjjjjjjjjj",
"kkkkkkkkkkkkkkkkkkkkkkk",
"kkkkkkkkkkkkkkkkkkkkkkk",
"kkkkkkkkkkkkkkkkkkkkkkk",
"lllllllllllllllllllllll",
"lllllllllllllllllllllll",
"lllllllllllllllllllllll",
"lllllllllllllllllllllll"};
