/* XPM */
static char * top_left_active_xpm[] = {
"10 23 29 1",
" 	c None",
".	c #3F403E",
"+	c #3B3C3A",
"@	c #5B5E59",
"#	c #595C57",
"$	c #595B56",
"%	c #5B5D58",
"&	c #565954",
"*	c #585B56",
"=	c #5A5D58",
"-	c #565853",
";	c #585A55",
">	c #5A5C57",
",	c #555753",
"'	c #575955",
")	c #595B57",
"!	c #555752",
"~	c #575954",
"{	c #545652",
"]	c #565854",
"^	c #585A56",
"/	c #535651",
"(	c #555853",
"_	c #575A55",
":	c #535551",
"<	c #525450",
"[	c #52544F",
"}	c #545651",
"|	c #51534F",
"     .....",
"   ++@@@@@",
"  +@@@@@@@",
" +#@@@@@@@",
" +$%%%%%%%",
".&*=======",
".-;>>>>>>>",
".,')))))))",
".!~$$$$$$$",
".{]^^^^^^^",
"./(_______",
".:,'''''''",
".<{]]]]]]]",
".<{]]]]]]]",
".<{]]]]]]]",
".<{]]]]]]]",
".[}-------",
".[}-------",
".[}-------",
".|:,,,,,,,",
".|:,,,,,,,",
".|:,,,,,,,",
".|:,,,,,,,"};
