#define close1_width 18
#define close1_height 6
static unsigned char close1_bits[] = {
   0xc0, 0x0c, 0x00, 0xc0, 0x0f, 0x00, 0x80, 0x07, 0x00, 0x80, 0x07, 0x00,
   0xc0, 0x0f, 0x00, 0xc0, 0x0c, 0x00 };
